<svg viewBox="0 0 710.835 745.631" xmlns="http://www.w3.org/2000/svg" width="710.835" height="745.631" fill="none">
  <defs>
    <linearGradient id="codelume-red" x1="711" x2="0.698" y1="373" y2="395.272" gradientUnits="userSpaceOnUse">
      <stop stop-color="rgb(139,88,244)" offset="0" stop-opacity="1" />
      <stop stop-color="rgb(248,83,116)" offset="1" stop-opacity="1" />
    </linearGradient>
    <linearGradient id="codelume-yellow" x1="711" x2="147.732" y1="395.999" y2="107.534" gradientUnits="userSpaceOnUse">
      <stop stop-color="rgb(250,136,78)" offset="0" stop-opacity="1" />
      <stop stop-color="rgb(251,177,83)" offset="1" stop-opacity="1" />
    </linearGradient>
    <linearGradient id="codelume-blue" x1="710.999" x2="355.000" y1="372.999" y2="746" gradientUnits="userSpaceOnUse">
      <stop stop-color="rgb(93,157,246)" offset="0" stop-opacity="1" />
      <stop stop-color="rgb(129,131,233)" offset="1" stop-opacity="1" />
    </linearGradient>
  </defs>
  <path d="M372.815 0C515.213 0 638.963 79.833 701.752 197.184L700.802 197.735C707.219 210.383 710.835 224.691 710.835 239.845C710.835 291.32 669.106 333.049 617.631 333.049C578.177 333.049 544.449 308.534 530.847 273.906C502.89 229.331 456.595 197.426 402.536 188.764L402.554 188.664C309.912 172.416 211.062 190.846 127.448 248.141C73.6619 284.91 29.411 335.687 0.737701 396.46C0.248352 388.642 0 380.758 0 372.815C0 166.915 166.915 0 372.815 0Z" fill="url(#codelume-yellow)" fill-rule="evenodd" />
  <path d="M372.815 0C515.213 0 638.963 79.833 701.752 197.184L700.802 197.735C707.219 210.383 710.835 224.691 710.835 239.845C710.835 291.32 669.106 333.049 617.631 333.049C578.177 333.049 544.449 308.534 530.847 273.906C497.884 221.35 439.43 186.408 372.815 186.408C269.865 186.408 186.408 269.865 186.408 372.815C186.408 463.592 251.295 539.214 337.218 555.828C381.298 582.017 451.256 598.107 546.945 598.107C620.324 598.107 666.145 585.266 693.871 561.226C690.092 570.375 684.899 578.792 678.563 586.203C611.167 682.591 499.353 745.631 372.815 745.631C166.915 745.631 0 578.716 0 372.815C0 166.915 166.915 0 372.815 0Z" fill="url(#codelume-red)" fill-rule="evenodd" />
  <path d="M372.815 0C515.213 0 638.963 79.8331 701.752 197.184L700.802 197.735C707.219 210.383 710.835 224.691 710.835 239.845C710.835 291.32 669.106 333.049 617.631 333.049C578.177 333.049 544.449 308.534 530.847 273.906C497.884 221.35 439.43 186.408 372.815 186.408C269.865 186.408 186.408 269.865 186.408 372.815C186.408 475.766 269.865 559.223 372.815 559.223C437.716 559.223 494.87 526.056 528.252 475.748L528.777 476.051C545.277 449.864 574.451 432.466 607.689 432.466C659.165 432.466 700.893 474.195 700.893 525.67C700.893 548.775 692.486 569.917 678.563 586.203C611.167 682.591 499.353 745.631 372.815 745.631C166.915 745.631 0 578.716 0 372.815C0 166.915 166.915 0 372.815 0Z" fill="url(#codelume-blue)" fill-rule="evenodd" />
</svg>
