<svg xmlns="http://www.w3.org/2000/svg" viewBox="0 0 1024 1024" role="img" aria-label="Codelume icon">
  <defs>
    <clipPath id="icon-clip">
      <rect width="1024" height="1024" rx="200" ry="200" />
    </clipPath>

    <linearGradient id="grad-top" x1="771.2368" y1="382" x2="116.0052" y2="378.9085" gradientUnits="userSpaceOnUse">
      <stop offset="0" stop-color="#FA884E" />
      <stop offset="1" stop-color="#FBB453" />
    </linearGradient>

    <linearGradient id="grad-mid" x1="165.5132" y1="482.6794" x2="767.109" y2="735.6313" gradientUnits="userSpaceOnUse">
      <stop offset="0" stop-color="#F85374" />
      <stop offset="1" stop-color="#8B58F4" />
    </linearGradient>

    <linearGradient id="grad-bot" x1="769.9437" y1="632.1061" x2="420" y2="692.1062" gradientUnits="userSpaceOnUse">
      <stop offset="0" stop-color="#5D9DF6" />
      <stop offset="1" stop-color="#9377E3" />
    </linearGradient>
  </defs>

  <!-- Rounded square background so the icon always renders on dark pages. -->
  <rect width="1024" height="1024" rx="200" ry="200" fill="#FFFFFF" />

  <g clip-path="url(#icon-clip)">
    <ellipse rx="373" ry="300" cx="489" cy="426" fill="url(#grad-top)" />

    <path
      d="M846 926.404C740.951 945.489 819.063 995.935 715.272 926.404C656.492 887.027 572.582 926.404 456.15 926.404C330.736 926.404 253.879 784.698 166.68 826.208C112.566 851.969 138.031 724.936 96.6473 766.568C71.1376 792.23 102.937 673.011 70.9686 716.47C23.7894 780.607 70.9686 898.565 70.9686 826.208C70.9686 497.122 177.311 330 499.337 330C591.027 330 544.761 422.031 544.858 463.595C544.945 500.766 661.909 491.635 715.272 520.849C846 592.418 846 774.819 846 926.404Z"
      fill="url(#grad-mid)"
      fill-rule="evenodd"
    />

    <path
      d="M503.944 480.106C637.944 654.106 435.802 568.106 711.945 568.106C988.087 568.106 847.944 3.96349 847.944 280.106C847.944 556.248 962.087 738.108 685.945 738.108C409.802 738.108 347.944 604.106 503.944 480.106Z"
      fill="url(#grad-bot)"
      fill-rule="evenodd"
    />

    <path
      d="M0 1024H1024V0H0V1024ZM512 884.816C638.537 884.816 750.351 821.775 817.747 725.387C831.67 709.102 840.078 687.96 840.078 664.854C840.078 613.379 798.349 571.651 746.874 571.651C713.636 571.651 684.462 589.049 667.961 615.235L667.436 614.932C634.054 665.241 576.9 698.408 512 698.408C409.05 698.408 325.592 614.95 325.592 512C325.592 409.05 409.05 325.592 512 325.592C578.615 325.592 637.068 360.535 670.032 413.091C683.633 447.719 717.362 472.233 756.816 472.233C808.291 472.233 850.019 430.504 850.019 379.029C850.019 363.876 846.403 349.567 839.987 336.919L840.937 336.368C778.148 219.018 654.397 139.184 512 139.184C306.1 139.184 139.184 306.1 139.184 512C139.184 717.9 306.1 884.816 512 884.816Z"
      fill="#FFFFFF"
      fill-rule="evenodd"
    />
  </g>
</svg>
